<svg xmlns="http://www.w3.org/2000/svg" xmlns:xlink="http://www.w3.org/1999/xlink" width="40" zoomAndPan="magnify" viewBox="0 0 30 30.000001" height="40" preserveAspectRatio="xMidYMid meet" version="1.0"><defs><clipPath id="ffb7145bd2"><path d="M 1.027344 2 L 29 2 L 29 26 L 1.027344 26 Z M 1.027344 2 " clip-rule="nonzero"/></clipPath></defs><g clip-path="url(#ffb7145bd2)"><path fill="#ffffff" d="M 6.832031 2.871094 C 5.238281 2.871094 4.058594 4.269531 4.109375 5.78125 C 4.160156 7.234375 4.09375 9.117188 3.621094 10.65625 C 3.144531 12.195312 2.34375 13.171875 1.027344 13.296875 L 1.027344 14.710938 C 2.34375 14.835938 3.144531 15.8125 3.621094 17.351562 C 4.09375 18.886719 4.160156 20.769531 4.109375 22.222656 C 4.058594 23.738281 5.238281 25.132812 6.832031 25.132812 L 23.167969 25.132812 C 24.765625 25.132812 25.945312 23.738281 25.890625 22.222656 C 25.839844 20.769531 25.90625 18.886719 26.378906 17.351562 C 26.855469 15.8125 27.65625 14.835938 28.972656 14.710938 L 28.972656 13.296875 C 27.65625 13.171875 26.855469 12.195312 26.378906 10.65625 C 25.90625 9.121094 25.839844 7.234375 25.890625 5.78125 C 25.945312 4.269531 24.765625 2.871094 23.167969 2.871094 Z M 19.972656 16.574219 C 19.972656 18.660156 18.417969 19.921875 15.839844 19.921875 L 11.449219 19.921875 C 11.320312 19.921875 11.203125 19.875 11.113281 19.785156 C 11.023438 19.695312 10.972656 19.574219 10.972656 19.449219 L 10.972656 8.554688 C 10.972656 8.429688 11.023438 8.308594 11.113281 8.222656 C 11.203125 8.132812 11.320312 8.082031 11.449219 8.082031 L 15.8125 8.082031 C 17.964844 8.082031 19.375 9.246094 19.375 11.035156 C 19.375 12.292969 18.425781 13.417969 17.21875 13.613281 L 17.21875 13.679688 C 18.863281 13.859375 19.972656 15 19.972656 16.574219 Z M 15.359375 9.585938 L 12.855469 9.585938 L 12.855469 13.121094 L 14.964844 13.121094 C 16.59375 13.121094 17.496094 12.464844 17.496094 11.289062 C 17.496094 10.191406 16.722656 9.585938 15.359375 9.585938 Z M 12.855469 14.523438 L 12.855469 18.421875 L 15.453125 18.421875 C 17.148438 18.421875 18.046875 17.742188 18.046875 16.460938 C 18.046875 15.179688 17.125 14.523438 15.34375 14.523438 Z M 12.855469 14.523438 " fill-opacity="1" fill-rule="evenodd"/></g></svg>