<svg xmlns="http://www.w3.org/2000/svg" xmlns:xlink="http://www.w3.org/1999/xlink" width="40" zoomAndPan="magnify" viewBox="0 0 30 30.000001" height="40" preserveAspectRatio="xMidYMid meet" version="1.0"><defs><clipPath id="fbd64891d7"><path d="M 0.484375 0 L 29.515625 0 L 29.515625 29.03125 L 0.484375 29.03125 Z M 0.484375 0 " clip-rule="nonzero"/></clipPath></defs><g clip-path="url(#fbd64891d7)"><path fill="#ffffff" d="M 15 0 C 6.980469 0 0.484375 6.496094 0.484375 14.515625 C 0.484375 22.535156 6.980469 29.03125 15 29.03125 C 23.019531 29.03125 29.515625 22.535156 29.515625 14.515625 C 29.515625 6.496094 23.019531 0 15 0 Z M 8.902344 9.289062 C 9.816406 9.289062 10.527344 9.957031 10.605469 10.742188 C 10.691406 11.449219 10.398438 12.070312 9.613281 12.441406 C 9.195312 12.648438 9.03125 12.648438 8.945312 12.527344 C 8.902344 12.441406 8.945312 12.363281 9.03125 12.277344 C 9.777344 11.660156 9.777344 11.15625 9.691406 10.453125 C 9.648438 9.996094 9.320312 9.707031 8.988281 9.707031 C 7.535156 9.707031 5.464844 12.9375 5.75 15.304688 C 5.878906 16.21875 6.417969 17.296875 7.574219 17.296875 C 7.949219 17.296875 8.367188 17.171875 8.738281 17.007812 C 9.34375 16.683594 9.707031 16.441406 10.066406 16.039062 C 9.976562 14.964844 10.917969 13.5625 12.304688 13.5625 C 12.929688 13.5625 13.425781 13.8125 13.46875 14.269531 C 13.546875 14.890625 13.007812 14.976562 12.84375 14.976562 C 12.679688 14.976562 12.386719 14.933594 12.386719 14.765625 C 12.347656 14.601562 12.757812 14.683594 12.722656 14.308594 C 12.679688 14.058594 12.429688 13.980469 12.183594 13.980469 C 11.308594 13.980469 10.8125 15.183594 10.933594 15.925781 C 10.976562 16.261719 11.140625 16.59375 11.480469 16.59375 C 11.726562 16.59375 12.097656 16.21875 12.21875 15.679688 C 12.304688 15.304688 12.636719 15.054688 12.929688 15.054688 C 13.050781 15.054688 13.132812 15.097656 13.175781 15.265625 L 13.175781 15.429688 C 13.136719 15.597656 13.007812 16.097656 13.050781 16.21875 C 13.050781 16.304688 13.09375 16.425781 13.257812 16.425781 C 13.367188 16.425781 13.785156 16.207031 14.199219 15.867188 C 14.335938 15.152344 14.5 14.300781 14.5 14.230469 C 14.542969 13.933594 14.667969 13.648438 15.25 13.648438 C 15.375 13.648438 15.457031 13.691406 15.5 13.855469 L 15.5 14.019531 L 15.332031 14.765625 C 15.871094 14.0625 16.660156 13.566406 17.15625 13.566406 C 17.363281 13.566406 17.53125 13.691406 17.53125 13.898438 C 17.53125 14.019531 17.53125 14.230469 17.445312 14.4375 C 17.28125 14.890625 17.070312 15.597656 16.949219 16.21875 C 16.949219 16.382812 16.992188 16.550781 17.199219 16.550781 C 17.40625 16.550781 18.027344 16.304688 18.523438 15.636719 L 18.53125 15.632812 C 18.53125 15.550781 18.523438 15.472656 18.523438 15.390625 C 18.523438 14.890625 18.566406 14.480469 18.652344 14.1875 C 18.734375 13.855469 19.148438 13.566406 19.398438 13.566406 C 19.519531 13.566406 19.648438 13.648438 19.648438 13.769531 C 19.648438 13.8125 19.648438 13.898438 19.605469 13.9375 C 19.4375 14.480469 19.3125 14.976562 19.3125 15.472656 C 19.3125 15.765625 19.355469 16.175781 19.4375 16.425781 C 19.4375 16.46875 19.476562 16.511719 19.519531 16.511719 C 19.605469 16.511719 20.1875 15.972656 20.597656 15.265625 C 20.222656 15.019531 20.015625 14.601562 20.015625 14.105469 C 20.015625 13.230469 20.558594 12.777344 21.054688 12.777344 C 21.472656 12.777344 21.800781 13.066406 21.800781 13.648438 C 21.800781 14.023438 21.679688 14.4375 21.472656 14.808594 L 21.59375 14.808594 C 21.859375 14.820312 22.121094 14.710938 22.300781 14.523438 C 22.339844 14.457031 22.398438 14.410156 22.464844 14.382812 C 22.871094 13.867188 23.464844 13.484375 24.171875 13.484375 C 24.75 13.484375 25.285156 13.734375 25.328125 14.1875 C 25.414062 14.8125 24.871094 14.933594 24.703125 14.933594 C 24.539062 14.933594 24.246094 14.890625 24.246094 14.726562 C 24.246094 14.5625 24.621094 14.640625 24.582031 14.273438 C 24.539062 14.023438 24.289062 13.9375 24.039062 13.9375 C 23.210938 13.9375 22.671875 15.015625 22.792969 15.890625 C 22.835938 16.21875 23.003906 16.59375 23.335938 16.59375 C 23.585938 16.59375 23.957031 16.21875 24.121094 15.683594 C 24.203125 15.351562 24.539062 15.058594 24.828125 15.058594 C 24.953125 15.058594 25.035156 15.101562 25.078125 15.265625 C 25.078125 15.351562 25.078125 15.515625 24.910156 16.054688 C 24.703125 16.429688 24.703125 16.636719 24.746094 16.800781 C 24.785156 17.132812 24.949219 17.382812 25.121094 17.507812 C 25.15625 17.550781 25.199219 17.628906 25.199219 17.628906 C 25.199219 17.714844 25.15625 17.800781 25.035156 17.800781 C 24.992188 17.800781 24.953125 17.800781 24.910156 17.757812 C 24.289062 17.507812 24.039062 17.089844 23.957031 16.675781 C 23.707031 16.96875 23.417969 17.132812 23.082031 17.132812 C 22.542969 17.132812 22.007812 16.636719 21.925781 16.011719 C 21.902344 15.75 21.929688 15.480469 22.015625 15.226562 C 21.769531 15.382812 21.503906 15.472656 21.257812 15.472656 L 21.054688 15.472656 C 20.511719 16.261719 19.929688 16.800781 19.519531 17.046875 C 19.378906 17.125 19.222656 17.167969 19.0625 17.175781 C 18.980469 17.175781 18.855469 17.132812 18.816406 17.046875 C 18.699219 16.863281 18.628906 16.574219 18.578125 16.246094 C 18 16.878906 17.195312 17.21875 16.824219 17.21875 C 16.40625 17.21875 16.160156 16.96875 16.117188 16.554688 L 16.117188 16.097656 C 16.242188 15.1875 16.578125 14.644531 16.578125 14.476562 C 16.574219 14.433594 16.539062 14.398438 16.492188 14.394531 C 16.203125 14.394531 15.25 15.390625 15.082031 16.058594 L 14.957031 16.59375 C 14.875 16.96875 14.5 17.21875 14.25 17.21875 C 14.128906 17.21875 14.042969 17.175781 14.003906 17.011719 L 14.003906 16.84375 L 14.058594 16.5625 C 13.53125 16.933594 13.007812 17.175781 12.757812 17.175781 C 12.382812 17.175781 12.175781 16.96875 12.140625 16.675781 C 11.890625 17.011719 11.597656 17.175781 11.226562 17.175781 C 10.796875 17.175781 10.382812 16.882812 10.183594 16.457031 C 9.886719 16.792969 9.550781 17.128906 9.152344 17.382812 C 8.570312 17.757812 7.910156 18.042969 7.121094 18.042969 C 6.417969 18.042969 5.792969 17.671875 5.460938 17.339844 C 4.960938 16.882812 4.671875 16.179688 4.632812 15.515625 C 4.386719 13.484375 5.628906 10.871094 7.53125 9.707031 C 7.988281 9.457031 8.449219 9.292969 8.902344 9.292969 Z M 20.722656 13.273438 C 20.597656 13.273438 20.515625 13.480469 20.515625 13.683594 C 20.515625 14.019531 20.679688 14.394531 20.886719 14.601562 C 20.972656 14.375 21.011719 14.132812 21.015625 13.894531 C 21.015625 13.484375 20.851562 13.273438 20.722656 13.273438 Z M 20.722656 13.273438 " fill-opacity="1" fill-rule="nonzero"/></g></svg>