<svg xmlns="http://www.w3.org/2000/svg" xmlns:xlink="http://www.w3.org/1999/xlink" width="40" zoomAndPan="magnify" viewBox="0 0 30 30.000001" height="40" preserveAspectRatio="xMidYMid meet" version="1.0"><defs><clipPath id="55893d2099"><path d="M 2 0 L 28 0 L 28 29.03125 L 2 29.03125 Z M 2 0 " clip-rule="nonzero"/></clipPath></defs><g clip-path="url(#55893d2099)"><path fill="#ffffff" d="M 2.128906 0.0429688 C 2.128906 0.253906 4.457031 26.105469 4.476562 26.125 C 4.519531 26.171875 14.855469 29.03125 14.980469 29.03125 C 15.097656 29.03125 25.476562 26.171875 25.523438 26.125 C 25.542969 26.109375 27.871094 0.210938 27.871094 0.0351562 C 27.871094 0.015625 22.078125 0 15 0 C 7.921875 0 2.128906 0.0195312 2.128906 0.0429688 M 6.667969 5.402344 C 6.671875 5.503906 6.753906 6.222656 6.855469 7.003906 L 7.03125 8.421875 L 11.199219 8.433594 L 15.367188 8.449219 L 15.085938 8.585938 C 14.929688 8.660156 13.128906 9.417969 11.085938 10.265625 C 9.042969 11.117188 7.363281 11.820312 7.347656 11.832031 C 7.324219 11.855469 7.496094 14.277344 7.554688 14.71875 L 7.585938 14.949219 L 13.257812 14.988281 C 16.378906 15.011719 18.9375 15.035156 18.941406 15.042969 C 18.960938 15.070312 18.703125 19.222656 18.679688 19.242188 C 18.667969 19.25 17.820312 19.492188 16.796875 19.777344 L 14.933594 20.296875 L 13.195312 19.867188 C 12.238281 19.628906 11.429688 19.40625 11.394531 19.371094 C 11.347656 19.324219 11.140625 17.253906 11.144531 16.855469 C 11.144531 16.800781 10.769531 16.785156 9.46875 16.785156 L 7.789062 16.785156 L 7.820312 16.941406 C 7.835938 17.027344 7.933594 18.136719 8.035156 19.410156 C 8.136719 20.683594 8.238281 21.75 8.253906 21.777344 C 8.273438 21.808594 9.808594 22.28125 11.667969 22.832031 L 15.050781 23.828125 L 18.382812 22.855469 C 20.214844 22.324219 21.71875 21.878906 21.726562 21.871094 C 21.742188 21.855469 22.378906 14.652344 22.574219 12.261719 L 22.613281 11.792969 L 18.851562 11.792969 L 15.085938 11.789062 L 18.914062 10.15625 C 21.019531 9.257812 22.78125 8.484375 22.828125 8.441406 C 22.894531 8.378906 22.949219 8.03125 23.046875 7.027344 C 23.117188 6.296875 23.1875 5.589844 23.207031 5.457031 L 23.238281 5.214844 L 6.664062 5.214844 Z M 6.667969 5.402344 " fill-opacity="1" fill-rule="evenodd"/></g></svg>