<svg xmlns="http://www.w3.org/2000/svg" xmlns:xlink="http://www.w3.org/1999/xlink" width="40" zoomAndPan="magnify" viewBox="0 0 30 30.000001" height="40" preserveAspectRatio="xMidYMid meet" version="1.0"><defs><clipPath id="50d9642988"><path d="M 2 0 L 28 0 L 28 29.03125 L 2 29.03125 Z M 2 0 " clip-rule="nonzero"/></clipPath></defs><g clip-path="url(#50d9642988)"><path fill="#ffffff" d="M 2.1875 0.183594 C 2.195312 0.589844 3.976562 25.398438 4 25.417969 C 4.015625 25.429688 6.5 26.253906 9.519531 27.246094 L 15.011719 29.050781 L 20.492188 27.246094 C 23.507812 26.253906 25.988281 25.429688 26.007812 25.410156 C 26.039062 25.378906 27.820312 0.527344 27.816406 0.15625 L 27.816406 0 L 2.183594 0 Z M 6.796875 4.664062 C 6.816406 4.890625 6.988281 7.320312 7.175781 10.066406 C 7.363281 12.808594 7.53125 15.136719 7.546875 15.238281 L 7.578125 15.421875 L 19.089844 15.421875 L 19.058594 15.664062 C 19.042969 15.796875 18.976562 16.722656 18.910156 17.71875 C 18.847656 18.71875 18.78125 19.589844 18.769531 19.65625 C 18.746094 19.761719 18.492188 19.863281 16.878906 20.402344 L 15.019531 21.023438 L 13.144531 20.40625 L 11.273438 19.789062 L 11.238281 19.578125 C 11.21875 19.460938 11.203125 19.242188 11.203125 19.09375 L 11.199219 18.824219 L 7.792969 18.824219 L 7.824219 19.066406 C 7.839844 19.199219 7.894531 19.957031 7.945312 20.753906 C 7.996094 21.546875 8.054688 22.214844 8.074219 22.234375 C 8.09375 22.25 9.660156 22.785156 11.554688 23.421875 L 15 24.582031 L 18.472656 23.425781 C 20.382812 22.789062 21.949219 22.265625 21.957031 22.261719 C 21.960938 22.257812 22.117188 20.0625 22.308594 17.378906 C 22.496094 14.699219 22.664062 12.394531 22.679688 12.261719 L 22.710938 12.019531 L 16.699219 12.019531 C 10.996094 12.019531 10.691406 12.015625 10.691406 11.921875 C 10.691406 11.867188 10.625 10.929688 10.550781 9.835938 C 10.472656 8.746094 10.40625 7.808594 10.40625 7.753906 C 10.40625 7.660156 10.746094 7.65625 16.695312 7.65625 L 22.984375 7.65625 L 23.019531 7.300781 C 23.070312 6.757812 23.222656 4.617188 23.222656 4.425781 L 23.222656 4.253906 L 6.761719 4.253906 Z M 6.796875 4.664062 " fill-opacity="1" fill-rule="evenodd"/></g></svg>