<svg xmlns="http://www.w3.org/2000/svg" xmlns:xlink="http://www.w3.org/1999/xlink" width="500" zoomAndPan="magnify" viewBox="0 0 375 374.999991" height="500" preserveAspectRatio="xMidYMid meet" version="1.0"><defs><clipPath id="8d9e5d4c74"><path d="M 137 0 L 349.828125 0 L 349.828125 335 L 137 335 Z M 137 0 " clip-rule="nonzero"/></clipPath><clipPath id="062725b1d3"><path d="M 25.078125 41 L 238 41 L 238 375 L 25.078125 375 Z M 25.078125 41 " clip-rule="nonzero"/></clipPath></defs><g clip-path="url(#8d9e5d4c74)"><path fill="#ffffff" d="M 150.890625 30.457031 L 177.773438 13.492188 C 178.238281 13.199219 178.675781 13.101562 179.066406 13.101562 C 179.652344 13.101562 180.140625 13.324219 180.308594 13.421875 C 180.75 13.664062 181.261719 14.101562 181.261719 14.832031 L 181.261719 48.808594 C 181.261719 49.542969 180.75 49.980469 180.308594 50.222656 C 179.992188 50.394531 178.894531 50.882812 177.773438 50.152344 L 150.890625 33.164062 C 150.207031 32.75 150.0625 32.1875 150.0625 31.820312 C 150.0625 31.457031 150.207031 30.894531 150.890625 30.457031 Z M 144.238281 43.714844 L 171.097656 60.703125 C 173.535156 62.238281 176.3125 63.019531 179.089844 63.019531 C 181.578125 63.019531 184.085938 62.386719 186.328125 61.144531 C 190.960938 58.585938 193.738281 53.976562 193.738281 48.808594 L 193.738281 38.230469 C 273.441406 41.5 337.25 107.332031 337.25 187.8125 C 337.25 245.40625 305.101562 296.933594 253.382812 322.328125 C 250.285156 323.839844 249.019531 327.570312 250.53125 330.664062 C 251.625 332.882812 253.84375 334.175781 256.136719 334.175781 C 257.0625 334.175781 257.988281 333.957031 258.890625 333.539062 C 314.925781 306.023438 349.730469 250.183594 349.730469 187.8125 C 349.730469 100.457031 280.3125 29.042969 193.738281 25.753906 L 193.738281 14.832031 C 193.738281 9.667969 190.960938 5.058594 186.328125 2.5 C 181.527344 -0.15625 175.703125 0.0390625 171.097656 2.9375 L 144.238281 19.925781 C 140.070312 22.558594 137.582031 26.996094 137.582031 31.820312 C 137.582031 36.648438 140.070312 41.082031 144.238281 43.714844 " fill-opacity="1" fill-rule="nonzero"/></g><path fill="#ffffff" d="M 106.386719 243.96875 C 99.511719 243.96875 93.90625 238.363281 93.90625 231.488281 L 93.90625 119.175781 C 93.90625 112.304688 99.511719 106.695312 106.386719 106.695312 L 268.613281 106.695312 C 275.488281 106.695312 281.09375 112.304688 281.09375 119.175781 L 281.09375 231.488281 C 281.09375 238.363281 275.488281 243.96875 268.613281 243.96875 L 181.1875 243.96875 C 176.726562 243.96875 172.414062 245.578125 169 248.476562 L 137.582031 274.921875 L 137.582031 256.449219 C 137.582031 249.574219 131.976562 243.96875 125.105469 243.96875 Z M 132.464844 286.453125 C 134.21875 287.253906 136.046875 287.644531 137.851562 287.644531 C 140.800781 287.644531 143.699219 286.621094 146.066406 284.597656 L 177.140625 257.957031 C 178.261719 256.984375 179.726562 256.449219 181.1875 256.449219 L 268.613281 256.449219 C 282.386719 256.449219 293.574219 245.261719 293.574219 231.488281 L 293.574219 119.175781 C 293.574219 105.429688 282.386719 94.21875 268.613281 94.21875 L 106.386719 94.21875 C 92.613281 94.21875 81.425781 105.429688 81.425781 119.175781 L 81.425781 231.488281 C 81.425781 245.261719 92.613281 256.449219 106.386719 256.449219 L 125.105469 256.449219 L 125.105469 274.921875 C 125.105469 279.945312 127.929688 284.355469 132.464844 286.453125 " fill-opacity="1" fill-rule="nonzero"/><path fill="#ffffff" d="M 125.105469 144.136719 L 249.894531 144.136719 C 253.332031 144.136719 256.136719 141.332031 256.136719 137.894531 C 256.136719 134.457031 253.332031 131.65625 249.894531 131.65625 L 125.105469 131.65625 C 121.667969 131.65625 118.863281 134.457031 118.863281 137.894531 C 118.863281 141.332031 121.667969 144.136719 125.105469 144.136719 " fill-opacity="1" fill-rule="nonzero"/><path fill="#ffffff" d="M 125.105469 175.332031 L 249.894531 175.332031 C 253.332031 175.332031 256.136719 172.53125 256.136719 169.09375 C 256.136719 165.65625 253.332031 162.855469 249.894531 162.855469 L 125.105469 162.855469 C 121.667969 162.855469 118.863281 165.65625 118.863281 169.09375 C 118.863281 172.53125 121.667969 175.332031 125.105469 175.332031 " fill-opacity="1" fill-rule="nonzero"/><path fill="#ffffff" d="M 193.738281 206.53125 C 197.175781 206.53125 199.980469 203.726562 199.980469 200.292969 C 199.980469 196.855469 197.175781 194.050781 193.738281 194.050781 L 125.105469 194.050781 C 121.667969 194.050781 118.863281 196.855469 118.863281 200.292969 C 118.863281 203.726562 121.667969 206.53125 125.105469 206.53125 L 193.738281 206.53125 " fill-opacity="1" fill-rule="nonzero"/><g clip-path="url(#062725b1d3)"><path fill="#ffffff" d="M 193.738281 326.839844 C 193.738281 326.082031 194.25 325.644531 194.691406 325.398438 C 194.859375 325.300781 195.347656 325.082031 195.933594 325.082031 C 196.324219 325.082031 196.761719 325.179688 197.226562 325.472656 L 224.109375 342.4375 C 224.792969 342.875 224.9375 343.410156 224.9375 343.800781 C 224.9375 344.191406 224.792969 344.726562 224.109375 345.167969 L 197.226562 362.128906 C 196.078125 362.863281 194.984375 362.375 194.691406 362.203125 C 194.25 361.960938 193.738281 361.519531 193.738281 360.765625 Z M 181.261719 349.894531 L 181.261719 360.765625 C 181.261719 365.957031 184.039062 370.589844 188.667969 373.125 C 190.914062 374.367188 193.421875 375 195.910156 375 C 198.6875 375 201.464844 374.21875 203.902344 372.683594 L 230.761719 355.695312 C 234.929688 353.0625 237.417969 348.628906 237.417969 343.800781 C 237.417969 338.976562 234.929688 334.539062 230.761719 331.90625 L 203.902344 314.917969 C 199.296875 312.019531 193.445312 311.847656 188.667969 314.480469 C 184.039062 317.015625 181.261719 321.648438 181.261719 326.839844 L 181.261719 337.417969 C 101.558594 334.125 37.75 268.292969 37.75 187.8125 C 37.75 130.21875 69.898438 78.691406 121.617188 53.296875 C 124.714844 51.785156 125.980469 48.03125 124.46875 44.933594 C 122.960938 41.863281 119.230469 40.570312 116.109375 42.082031 C 60.074219 69.601562 25.269531 125.441406 25.269531 187.8125 C 25.269531 275.191406 94.6875 346.582031 181.261719 349.894531 " fill-opacity="1" fill-rule="nonzero"/></g></svg>