<svg xmlns="http://www.w3.org/2000/svg" xmlns:xlink="http://www.w3.org/1999/xlink" width="40" zoomAndPan="magnify" viewBox="0 0 30 30.000001" height="40" preserveAspectRatio="xMidYMid meet" version="1.0"><defs><clipPath id="85b099fa51"><path d="M 0.484375 0 L 29.515625 0 L 29.515625 29.03125 L 0.484375 29.03125 Z M 0.484375 0 " clip-rule="nonzero"/></clipPath></defs><g clip-path="url(#85b099fa51)"><path fill="#ffffff" d="M 22.734375 26.757812 C 20.199219 26.757812 18.5625 25.546875 17.765625 23.96875 L 19.984375 22.683594 C 20.570312 23.636719 21.332031 24.339844 22.675781 24.339844 C 23.804688 24.339844 24.527344 23.773438 24.527344 22.996094 C 24.527344 21.824219 22.960938 21.363281 21.855469 20.890625 C 19.890625 20.050781 18.582031 19 18.582031 16.777344 C 18.582031 14.730469 20.140625 13.171875 22.578125 13.171875 C 24.3125 13.171875 25.558594 13.777344 26.457031 15.355469 L 24.332031 16.71875 C 23.863281 15.882812 23.359375 15.550781 22.578125 15.550781 C 21.777344 15.550781 21.273438 16.058594 21.273438 16.71875 C 21.273438 17.539062 21.777344 17.871094 22.949219 18.375 C 25.402344 19.425781 27.257812 20.253906 27.257812 22.957031 C 27.257812 25.410156 25.328125 26.757812 22.734375 26.757812 Z M 16.453125 22.644531 C 16.453125 25.46875 14.710938 26.964844 12.292969 26.964844 C 10.109375 26.964844 8.804688 26.128906 8.160156 24.675781 L 8.121094 24.675781 L 10.339844 23.125 C 10.769531 23.886719 11.15625 24.421875 12.089844 24.421875 C 12.988281 24.421875 13.546875 23.96875 13.546875 22.605469 L 13.546875 13.066406 L 16.453125 13.066406 Z M 0.484375 29.03125 L 29.515625 29.03125 L 29.515625 0 L 0.484375 0 Z M 0.484375 29.03125 " fill-opacity="1" fill-rule="evenodd"/></g></svg>