<svg xmlns="http://www.w3.org/2000/svg" xmlns:xlink="http://www.w3.org/1999/xlink" width="40" zoomAndPan="magnify" viewBox="0 0 30 30.000001" height="40" preserveAspectRatio="xMidYMid meet" version="1.0"><path fill="#ffffff" d="M 26.070312 7.136719 L 16.027344 1.453125 C 15.34375 1.128906 14.65625 1.128906 13.972656 1.453125 L 3.929688 7.136719 C 3.617188 7.316406 3.367188 7.566406 3.183594 7.878906 C 3.003906 8.191406 2.90625 8.527344 2.902344 8.890625 L 2.902344 20.140625 C 2.90625 20.503906 3.003906 20.839844 3.183594 21.152344 C 3.367188 21.46875 3.617188 21.714844 3.929688 21.894531 L 6.59375 23.40625 C 7.300781 23.828125 8.066406 24.027344 8.890625 24.011719 C 10.765625 24.011719 11.855469 22.863281 11.855469 20.925781 L 11.855469 9.859375 C 11.855469 9.773438 11.824219 9.703125 11.765625 9.644531 C 11.707031 9.585938 11.636719 9.554688 11.550781 9.554688 L 10.28125 9.554688 C 10.199219 9.554688 10.128906 9.585938 10.070312 9.644531 C 10.007812 9.703125 9.980469 9.773438 9.980469 9.859375 L 9.980469 20.925781 C 9.980469 21.835938 9.074219 22.679688 7.621094 21.957031 L 4.839844 20.382812 C 4.757812 20.324219 4.71875 20.242188 4.71875 20.140625 L 4.71875 8.890625 C 4.722656 8.777344 4.761719 8.675781 4.839844 8.589844 L 14.820312 2.964844 L 15.179688 2.964844 L 25.160156 8.589844 C 25.238281 8.675781 25.277344 8.777344 25.28125 8.890625 L 25.28125 20.140625 C 25.28125 20.242188 25.242188 20.324219 25.160156 20.382812 L 15.179688 26.007812 C 15.058594 26.078125 14.941406 26.078125 14.820312 26.007812 L 12.277344 24.554688 C 12.199219 24.484375 12.117188 24.484375 12.035156 24.554688 L 10.523438 25.222656 C 10.34375 25.28125 10.101562 25.34375 10.585938 25.644531 L 13.972656 27.519531 C 14.285156 27.726562 14.625 27.828125 15 27.828125 C 15.375 27.828125 15.714844 27.726562 16.027344 27.519531 L 26.070312 21.894531 C 26.382812 21.714844 26.632812 21.46875 26.816406 21.152344 C 26.996094 20.839844 27.09375 20.503906 27.097656 20.140625 L 27.097656 8.890625 C 27.09375 8.527344 26.996094 8.191406 26.816406 7.878906 C 26.632812 7.566406 26.382812 7.316406 26.070312 7.136719 Z M 26.070312 7.136719 " fill-opacity="1" fill-rule="nonzero"/><path fill="#ffffff" d="M 18.085938 18.328125 C 15.421875 18.328125 14.878906 17.722656 14.636719 16.453125 C 14.636719 16.386719 14.613281 16.328125 14.566406 16.28125 C 14.519531 16.234375 14.460938 16.210938 14.394531 16.210938 L 13.066406 16.210938 C 12.996094 16.210938 12.941406 16.234375 12.894531 16.28125 C 12.847656 16.328125 12.824219 16.386719 12.824219 16.453125 C 12.824219 18.085938 13.730469 20.082031 18.085938 20.082031 C 21.230469 20.082031 23.042969 18.871094 23.042969 16.753906 C 23.042969 14.636719 21.59375 14.03125 18.507812 13.667969 C 15.421875 13.304688 15.121094 13.066406 15.121094 12.339844 C 15.121094 11.613281 15.363281 11.007812 17.660156 11.007812 C 19.960938 11.007812 20.503906 11.429688 20.804688 12.761719 C 20.839844 12.925781 20.941406 13.007812 21.109375 13.003906 L 22.378906 13.003906 L 22.621094 12.882812 C 22.667969 12.832031 22.6875 12.769531 22.679688 12.703125 C 22.5 10.34375 20.867188 9.253906 17.660156 9.253906 C 14.457031 9.253906 13.125 10.464844 13.125 12.398438 C 13.125 14.335938 14.820312 15.121094 17.539062 15.421875 C 20.261719 15.726562 21.109375 16.148438 21.109375 16.816406 C 21.109375 17.480469 20.203125 18.328125 18.085938 18.328125 Z M 18.085938 18.328125 " fill-opacity="1" fill-rule="nonzero"/></svg>