<svg xmlns="http://www.w3.org/2000/svg" xmlns:xlink="http://www.w3.org/1999/xlink" width="40" zoomAndPan="magnify" viewBox="0 0 30 30.000001" height="40" preserveAspectRatio="xMidYMid meet" version="1.0"><defs><clipPath id="7fdf504726"><path d="M 0.484375 0 L 29.515625 0 L 29.515625 29.03125 L 0.484375 29.03125 Z M 0.484375 0 " clip-rule="nonzero"/></clipPath></defs><g clip-path="url(#7fdf504726)"><path fill="#ffffff" d="M 24.660156 0.0273438 L 5.339844 0.0273438 C 2.683594 0.0273438 0.511719 2.203125 0.511719 4.859375 L 0.511719 24.175781 C 0.511719 26.832031 2.683594 29.003906 5.339844 29.003906 L 24.660156 29.003906 C 27.316406 29.003906 29.488281 26.832031 29.488281 24.175781 L 29.488281 4.859375 C 29.488281 2.203125 27.316406 0.0273438 24.660156 0.0273438 Z M 14.394531 14.773438 C 13.390625 15.777344 11.808594 16.25 10.023438 16.25 C 9.550781 16.25 9.121094 16.230469 8.792969 16.167969 L 8.792969 21.382812 L 6.289062 21.382812 L 6.289062 7.730469 C 7.191406 7.566406 8.441406 7.445312 10.144531 7.445312 C 11.992188 7.445312 13.347656 7.835938 14.230469 8.574219 C 15.050781 9.25 15.585938 10.339844 15.585938 11.632812 C 15.585938 12.945312 15.175781 14.035156 14.394531 14.773438 Z M 19.648438 21.585938 C 18.4375 21.585938 17.351562 21.300781 16.609375 20.890625 L 17.101562 19.0625 C 17.679688 19.410156 18.765625 19.78125 19.667969 19.78125 C 20.777344 19.78125 21.269531 19.328125 21.269531 18.671875 C 21.269531 17.996094 20.859375 17.644531 19.628906 17.214844 C 17.679688 16.539062 16.855469 15.46875 16.878906 14.300781 C 16.878906 12.535156 18.335938 11.160156 20.65625 11.160156 C 21.761719 11.160156 22.726562 11.449219 23.300781 11.753906 L 22.808594 13.542969 C 22.378906 13.292969 21.578125 12.964844 20.695312 12.964844 C 19.792969 12.964844 19.300781 13.398438 19.300781 14.011719 C 19.300781 14.648438 19.773438 14.957031 21.042969 15.410156 C 22.851562 16.066406 23.691406 16.988281 23.710938 18.46875 C 23.710938 20.273438 22.296875 21.585938 19.648438 21.585938 Z M 13.0625 11.734375 C 13.0625 13.355469 11.910156 14.28125 10.023438 14.28125 C 9.511719 14.28125 9.097656 14.257812 8.792969 14.175781 L 8.792969 9.496094 C 9.058594 9.4375 9.550781 9.375 10.25 9.375 C 11.992188 9.375 13.0625 10.195312 13.0625 11.734375 Z M 13.0625 11.734375 " fill-opacity="1" fill-rule="nonzero"/></g></svg>