<svg xmlns="http://www.w3.org/2000/svg" xmlns:xlink="http://www.w3.org/1999/xlink" width="40" zoomAndPan="magnify" viewBox="0 0 30 30.000001" height="40" preserveAspectRatio="xMidYMid meet" version="1.0"><defs><clipPath id="f8d5ae7c48"><path d="M 1.027344 0.542969 L 29 0.542969 L 29 28.851562 L 1.027344 28.851562 Z M 1.027344 0.542969 " clip-rule="nonzero"/></clipPath></defs><g clip-path="url(#f8d5ae7c48)"><path fill="#ffffff" d="M 15 0.542969 C 15.917969 0.542969 16.824219 0.632812 17.726562 0.8125 C 18.625 0.992188 19.5 1.257812 20.347656 1.609375 C 21.195312 1.957031 22 2.390625 22.761719 2.898438 C 23.523438 3.410156 24.230469 3.988281 24.878906 4.636719 C 25.527344 5.285156 26.109375 5.992188 26.617188 6.753906 C 27.125 7.515625 27.558594 8.320312 27.910156 9.167969 C 28.257812 10.015625 28.523438 10.890625 28.703125 11.789062 C 28.882812 12.691406 28.972656 13.597656 28.972656 14.515625 C 28.972656 15.433594 28.882812 16.34375 28.703125 17.242188 C 28.523438 18.140625 28.257812 19.015625 27.910156 19.863281 C 27.558594 20.710938 27.125 21.515625 26.617188 22.277344 C 26.109375 23.042969 25.527344 23.746094 24.878906 24.394531 C 24.230469 25.042969 23.523438 25.625 22.761719 26.132812 C 22 26.644531 21.195312 27.074219 20.347656 27.425781 C 19.5 27.777344 18.625 28.039062 17.726562 28.21875 C 16.824219 28.398438 15.917969 28.488281 15 28.488281 C 14.082031 28.488281 13.175781 28.398438 12.273438 28.21875 C 11.375 28.039062 10.5 27.777344 9.652344 27.425781 C 8.804688 27.074219 8 26.644531 7.238281 26.132812 C 6.476562 25.625 5.769531 25.042969 5.121094 24.394531 C 4.472656 23.746094 3.890625 23.042969 3.382812 22.277344 C 2.875 21.515625 2.441406 20.710938 2.089844 19.863281 C 1.742188 19.015625 1.476562 18.140625 1.296875 17.242188 C 1.117188 16.34375 1.027344 15.433594 1.027344 14.515625 C 1.027344 13.597656 1.117188 12.691406 1.296875 11.789062 C 1.476562 10.890625 1.742188 10.015625 2.089844 9.167969 C 2.441406 8.320312 2.875 7.515625 3.382812 6.753906 C 3.890625 5.992188 4.472656 5.285156 5.121094 4.636719 C 5.769531 3.988281 6.476562 3.410156 7.238281 2.898438 C 8 2.390625 8.804688 1.957031 9.652344 1.609375 C 10.5 1.257812 11.375 0.992188 12.273438 0.8125 C 13.175781 0.632812 14.082031 0.542969 15 0.542969 M 8.886719 13.644531 C 8.644531 13.644531 8.441406 13.726562 8.269531 13.898438 C 8.097656 14.070312 8.015625 14.273438 8.015625 14.515625 C 8.015625 14.757812 8.097656 14.964844 8.269531 15.132812 C 8.441406 15.304688 8.644531 15.390625 8.886719 15.390625 L 19.003906 15.390625 L 15.253906 19.136719 C 15.085938 19.308594 15 19.515625 15 19.753906 C 15 19.996094 15.085938 20.203125 15.253906 20.375 C 15.425781 20.542969 15.632812 20.628906 15.875 20.628906 C 16.113281 20.628906 16.320312 20.542969 16.492188 20.375 L 21.730469 15.132812 C 21.902344 14.964844 21.988281 14.757812 21.988281 14.515625 C 21.988281 14.273438 21.902344 14.070312 21.730469 13.898438 L 16.492188 8.660156 C 16.320312 8.488281 16.113281 8.402344 15.875 8.402344 C 15.632812 8.402344 15.425781 8.488281 15.253906 8.65625 C 15.082031 8.828125 15 9.035156 15 9.277344 C 15 9.519531 15.085938 9.722656 15.253906 9.894531 L 19.003906 13.644531 Z M 8.886719 13.644531 " fill-opacity="1" fill-rule="nonzero"/></g></svg>